# xmcd
#
# Track frame offsets:
#	150
#	16184
#	29304
#	45617
#	68249
#	83488
#	103106
#	119775
#	136678
#	148618
#	165314
#	187328
#	197752
#	215752
#	233977
#	249809
#
# Disc length: 3497 seconds
#
# Revision: 1
# Processed by: cddbd v1.5.2PL0 Copyright (c) Steve Scherf et al.
# Submitted via: audiograbber 1.83.01
#
DISCID=de0da710
DTITLE=Various Artist - Midnight Flyer - Truckersongs From Australia
DYEAR=1999
DGENRE=Country
TTITLE0=Grant Hart - When's It Gonna Rain
TTITLE1=The Blackstone Ramblers - If You've Got It Babe 
TTITLE2=Joel Smoker - Unsung Heroes
TTITLE3=The Blakstone Ramblers - Purple Hill
TTITLE4=Joel Smoker - Here Come The Tourists
TTITLE5=Grant Hart  - Train Ride Of Life
TTITLE6=The Blackstone Ramblers - Poor Boy
TTITLE7=Grant Hart - Moisture Meter Misery
TTITLE8=Joel Smoker - Bush Dance
TTITLE9=The Blackstone Ramblers - Marandoo
TTITLE10=Grant Hart - Country Towns
TTITLE11=Joel Smoker - North Of The Tropic Of Capricorn
TTITLE12=The Blackstone Ramblers - Midnight Flyer
TTITLE13=Joel Smoker - Trouble In The Country
TTITLE14=Grant Hart - You're Wrong
TTITLE15=The Blackstone Ramblers - Cooya Pooya
EXTD=
EXTT0=
EXTT1=
EXTT2=
EXTT3=
EXTT4=
EXTT5=
EXTT6=
EXTT7=
EXTT8=
EXTT9=
EXTT10=
EXTT11=
EXTT12=
EXTT13=
EXTT14=
EXTT15=
PLAYORDER=
